<?xml version="1.0" encoding="utf-8"?>
<!-- Generator: Adobe Illustrator 24.2.1, SVG Export Plug-In . SVG Version: 6.00 Build 0)  -->
<svg version="1.1" id="Layer_1" xmlns="http://www.w3.org/2000/svg" xmlns:xlink="http://www.w3.org/1999/xlink" x="0px" y="0px"
	 viewBox="0 0 2500 2246" style="enable-background:new 0 0 2500 2246;" xml:space="preserve">
<style type="text/css">
	.st0{fill:none;}
	.st1{fill:#53C1DE;}
</style>
<path class="st0" d="M7.4,1120.6c0,187.6,183.2,362.8,472.1,461.5c-57.7,290.4-10.3,524.5,147.8,615.6
	c162.5,93.7,404.7,28.9,634.5-172.1c224,192.8,450.5,268.7,608.5,177.2c162.4-94,211.8-343.9,152.5-643.4
	c300.9-99.5,469.2-248.8,469.2-438.9c0-183.3-183.6-341.8-468.5-439.9c63.8-311.8,9.7-540.2-154.9-635.2
	c-158.8-91.6-387.8-11.8-615.2,186.1C1016.8,21.5,790-42.6,625.5,52.7c-158.6,91.8-203.9,330.1-146,625.9
	C200.3,775.9,7.4,938,7.4,1120.6z"/>
<path class="st0" d="M1705.7,1231.2L1705.7,1231.2c-20.5,39.4-41.8,78.4-64,116.9c-21.8,37.9-44.4,75.3-67.7,112.3
	c72.8-8.7,141.8-20.5,205.8-35.1C1760,1363.4,1735.2,1298.4,1705.7,1231.2z"/>
<path class="st0" d="M1574.2,787.8c23.2,36.3,45.5,73.1,67.1,110.3v0c21.9,37.8,43.1,76.1,63.5,114.8c27.9-65.3,51.6-129.1,70.6-190
	C1712.1,808.5,1644.6,796.7,1574.2,787.8z"/>
<path class="st0" d="M1052.3,1472.6c64.3,4.2,131.1,6.3,199.8,6.3c68.9,0,136.6-2.4,202.1-7.1c37.1-55.8,72.4-112.7,105.9-170.8l0,0
	c33.7-58.4,65.3-118,94.8-178.6c-29.8-60-61.5-119.1-95.1-177c-33.4-57.8-68.9-114.4-106.3-169.7c-65.6-5-133-7.6-201.3-7.6
	c-68,0-135.3,2.6-200.9,7.6c-37.8,55.4-73.5,112.2-107,170.3v0c-33.5,58.1-64.8,117.4-93.9,177.9c29.1,60.4,60.5,119.7,94.1,177.8
	C978.3,1359.9,1014.2,1416.9,1052.3,1472.6z"/>
<path class="st0" d="M930.2,787.6c-69.9,8.7-137.1,20.3-200,34.3c19.2,61.8,42.7,125.8,70.1,190.9c19.9-38.5,40.6-76.6,62.3-114.1
	C884.2,861.2,906.8,824.1,930.2,787.6z"/>
<path class="st0" d="M932.2,1462c-24-37.2-47.1-75-69.3-113.3c-21.7-37.6-42.6-75.6-62.6-114.2c-28,66.5-52,131.9-71.5,194.8
	C791.8,1443.1,859.9,1454,932.2,1462z"/>
<path class="st0" d="M1800.8,732c3.6-14.6,6.9-29.2,9.9-43.9c46.4-225.4,17.7-397.2-56.2-439.8l0,0c-69.4-40-221.6,16-384.5,157.7
	c-17.3,15.1-34.2,30.6-50.7,46.5c63.1,67.9,125.9,146.4,186.5,232.8C1609.8,695.2,1709.2,710.9,1800.8,732z"/>
<path class="st0" d="M689.5,663.1c4.5,22.8,9.5,45.5,15.2,68c91.3-20.7,190.7-36.1,294.4-45.8c60.5-85.4,123.9-163.8,188-232.6
	c-11.1-10.6-22.1-20.8-33.1-30.6c-172-152.8-335.3-213.7-409.1-171C675.6,291.3,648,451.2,689.5,663.1L689.5,663.1z"/>
<path class="st0" d="M1817.6,1569.4c-3.4-17.4-7.5-35.2-11.9-53.4c-91.4,21.1-192.2,36.6-298.8,46.1
	c-60.6,87.8-122.8,166.8-185,234.9c18.6,17.9,37.1,34.8,55.5,50.6c160.4,138,309.1,190.3,378.6,150.1c32.7-18.9,59.1-66.1,72.2-137
	C1842.8,1781.8,1839.6,1681,1817.6,1569.4L1817.6,1569.4z"/>
<path class="st0" d="M1252.1,1573.1c-43.8,0-86.9-0.8-129.1-2.5c43.5,57.4,88.1,110.7,132.8,158.9c43.2-47.5,86.6-100.9,129.5-159.3
	C1341.5,1572.1,1297.1,1573.1,1252.1,1573.1z"/>
<path class="st0" d="M1932.4,867.2c-21.1-7.3-43-14.2-65.6-20.7c-27.1,87.8-63.4,180.6-107.4,275.5
	c46.1,97.1,83.8,191.1,111.7,279.5c12.6-3.7,25-7.6,37.1-11.6h0c218.4-72.4,352.9-183.1,352.9-268.4
	C2261.1,1041.4,2136.6,937.5,1932.4,867.2z"/>
<path class="st0" d="M638.6,845.1c-25.5,7.2-50.9,15.2-75.9,23.9c-199.8,69.7-319.6,172.1-319.6,252.5c0,37.8,27.6,84.3,82.4,131.2
	c60.9,52.1,149.8,99.9,257.4,136.7c18,6.1,36.2,11.8,54.5,17.1c27.9-90.9,64.6-186.3,108.9-282.6
	C702.5,1028.8,666.2,934.9,638.6,845.1z"/>
<path class="st0" d="M1383,676.8c-42.8-57.1-86.4-109.7-129.8-156.8c-44.2,47.6-88.1,100.2-130.9,156.7
	C1209.1,672.7,1296.1,672.7,1383,676.8z"/>
<path class="st0" d="M703.4,1520.3c-6,24.3-11.4,48.7-16.1,73.3c-39.5,207.9-10.5,362.8,59.1,403c32.7,18.9,86.8,18.2,154.7-5.8l0,0
	c75.6-26.7,161.4-79.8,247-154.6c14.3-12.6,28.3-25.5,42-38.7c-64.4-69.1-128.4-148.1-189.4-234
	C893.8,1554.7,793.8,1540.3,703.4,1520.3z"/>
<g>
	<path class="st1" d="M1963.1,778L1963.1,778c-23.5-8.1-47.2-15.5-71-22.4c4-16.1,7.6-32.2,11-48.4c53.8-261,18.6-471.3-101.4-540.5
		c-115.1-66.4-303.4,2.8-493.5,168.3c-18.7,16.3-37.1,33.2-54.9,50.4c-12-11.5-24.2-22.7-36.6-33.8
		c-199.3-176.9-399-251.5-518.9-182.1c-115,66.6-149.1,264.2-100.7,511.6c4.8,24.5,10.3,48.9,16.3,73.1c-28.3,8-55.6,16.6-81.7,25.7
		C298,861.4,148.9,989.1,148.9,1121.5c0,136.8,160.1,273.9,403.5,357.1c19.7,6.7,39.6,12.9,59.7,18.7c-6.5,26.1-12.3,52.4-17.3,78.8
		c-46.2,243.1-10.1,436,104.6,502.2c118.5,68.3,317.3-1.9,510.9-171.1c15.3-13.4,30.7-27.6,46-42.4c19.4,18.7,39.3,36.8,59.6,54.4
		c187.5,161.4,372.7,226.5,487.3,160.2c118.4-68.5,156.8-275.8,106.9-528.1c-3.8-19.3-8.3-38.9-13.2-59c14-4.1,27.7-8.4,41-12.8
		c253-83.8,417.5-219.3,417.5-357.9C2355.4,988.6,2201.4,860.1,1963.1,778z M1370,406.1c162.9-141.8,315.2-197.7,384.5-157.7l0,0
		c73.9,42.6,102.6,214.5,56.2,439.8c-3,14.7-6.4,29.3-9.9,43.9c-91.5-21.1-190.9-36.8-295-46.6c-60.6-86.3-123.5-164.8-186.5-232.8
		C1335.7,436.7,1352.7,421.2,1370,406.1z M800.4,1234.6c20,38.5,40.8,76.6,62.6,114.2c22.2,38.3,45.3,76.1,69.3,113.3
		c-72.3-8.1-140.4-19-203.4-32.7C748.3,1366.4,772.3,1301.1,800.4,1234.6z M800.2,1012.9c-27.4-65.1-50.9-129.1-70.1-190.9
		c63-14.1,130.1-25.6,200-34.3c-23.4,36.5-46,73.6-67.6,111.2C840.9,936.3,820.1,974.4,800.2,1012.9z M850.4,1123.7
		c29-60.5,60.3-119.8,93.9-177.9v0c33.5-58.1,69.2-114.9,107-170.3c65.6-5,132.9-7.6,200.9-7.6c68.3,0,135.7,2.6,201.3,7.6
		c37.4,55.3,72.9,111.9,106.3,169.7c33.6,58,65.3,117,95.1,177c-29.5,60.6-61.1,120.2-94.8,178.6l0,0
		c-33.4,58.1-68.7,115-105.9,170.8c-65.5,4.7-133.1,7.1-202.1,7.1c-68.7,0-135.5-2.1-199.8-6.3c-38.1-55.6-74.1-112.7-107.8-171.1
		C910.9,1243.5,879.5,1184.2,850.4,1123.7z M1641.7,1348.1c22.2-38.5,43.5-77.5,64-116.9h0c29.5,67.2,54.4,132.3,74.1,194.1
		c-64,14.6-133.1,26.4-205.8,35.1C1597.3,1423.4,1619.8,1386,1641.7,1348.1z M1704.8,1012.9c-20.4-38.7-41.6-77-63.5-114.8v0
		c-21.6-37.3-43.9-74.1-67.1-110.3c70.4,8.9,137.9,20.7,201.2,35.2C1756.4,883.9,1732.7,947.6,1704.8,1012.9z M1253.2,520.1
		c43.5,47.1,87,99.7,129.8,156.8c-86.9-4.1-173.9-4.1-260.8-0.1C1165.1,620.2,1209,567.7,1253.2,520.1z M744.9,251.2
		c73.8-42.7,237.1,18.2,409.1,171c11,9.8,22,20,33.1,30.6c-64.1,68.8-127.4,147.2-188,232.6c-103.8,9.6-203.1,25.1-294.4,45.8
		c-5.6-22.5-10.7-45.2-15.2-68v0C648,451.2,675.6,291.3,744.9,251.2z M637.3,1406.4c-18.3-5.2-36.5-10.9-54.5-17.1
		c-107.6-36.8-196.4-84.6-257.4-136.7c-54.7-46.9-82.4-93.4-82.4-131.2c0-80.3,119.8-182.8,319.6-252.5
		c25.1-8.7,50.4-16.7,75.9-23.9c27.6,89.8,63.8,183.7,107.5,278.7C701.9,1220.1,665.2,1315.5,637.3,1406.4z M1148.1,1836
		c-85.6,74.8-171.4,127.9-247,154.6l0,0c-67.9,24-122,24.7-154.7,5.8c-69.6-40.1-98.5-195.1-59.1-403c4.7-24.6,10.1-49,16.1-73.3
		c90.4,20,190.4,34.4,297.4,43c61,85.9,125,164.9,189.4,234C1176.5,1810.6,1162.4,1823.5,1148.1,1836z M1255.8,1729.5
		c-44.7-48.2-89.2-101.5-132.8-158.9c42.2,1.7,85.3,2.5,129.1,2.5c45,0,89.4-1,133.2-3C1342.3,1628.6,1298.9,1682,1255.8,1729.5z
		 M1828.2,1860.7c-13.1,70.8-39.6,118.1-72.2,137c-69.5,40.3-218.3-12.1-378.6-150.1c-18.4-15.8-36.9-32.7-55.5-50.6
		c62.2-68,124.3-147.1,185-234.9c106.7-9.5,207.5-24.9,298.8-46.1c4.5,18.2,8.5,36,11.9,53.4v0
		C1839.6,1681,1842.8,1781.8,1828.2,1860.7z M1908.2,1389.9L1908.2,1389.9c-12.1,4-24.5,7.9-37.1,11.6
		c-27.9-88.4-65.6-182.4-111.7-279.5c44-94.8,80.2-187.6,107.4-275.5c22.6,6.5,44.5,13.4,65.6,20.7
		c204.2,70.3,328.7,174.2,328.7,254.3C2261.1,1206.8,2126.6,1317.5,1908.2,1389.9z"/>
	<path class="st1" d="M1252.1,924.4c108.8,0,197,88.2,197,197c0,108.8-88.2,197-197,197c-108.8,0-197-88.2-197-197
		C1055.1,1012.6,1143.3,924.4,1252.1,924.4"/>
</g>
</svg>
