<svg xmlns="http://www.w3.org/2000/svg" viewBox="0 0 140 140">
<path style="fill:#F34F29;" d="M130.753,64.377L75.636,9.263c-3.172-3.174-8.32-3.174-11.497,0L52.696,20.709l14.518,14.518c3.375-1.139,7.243-0.375,9.932,2.314c2.703,2.706,3.462,6.607,2.293,9.993l13.992,13.994c3.385-1.167,7.292-0.413,9.994,2.295c3.78,3.777,3.78,9.9,0,13.679c-3.78,3.78-9.901,3.78-13.683,0c-2.842-2.844-3.545-7.019-2.105-10.521L74.589,53.932l-0.002,34.341c0.922,0.455,1.791,1.063,2.559,1.828c3.779,3.777,3.779,9.898,0,13.683c-3.779,3.777-9.904,3.777-13.679,0c-3.778-3.784-4.088-9.905-0.311-13.683c0.934-0.933,1.855-1.638,2.855-2.11V53.333c-1-0.472-1.92-1.172-2.856-2.111c-2.861-2.86-3.396-7.06-1.928-10.576L46.994,26.333L9.24,64.123c-3.175,3.177-3.155,8.325,0.02,11.5l55.126,55.114c3.173,3.174,8.325,3.174,11.503,0l54.86-54.858C133.924,72.702,133.927,67.551,130.753,64.377L130.753,64.377z"/>
</svg>
