<svg xmlns="http://www.w3.org/2000/svg" viewBox="0 0 300 300">
<path style="fill:#00546B;" d="M257.803,218.712c-13.929-0.347-24.724,1.046-33.778,4.876c-2.612,1.044-6.791,1.045-7.139,4.353c1.393,1.393,1.567,3.657,2.786,5.571c2.092,3.482,5.745,8.183,9.054,10.622c3.656,2.785,7.314,5.57,11.142,8.008c6.791,4.179,14.453,6.616,21.069,10.795c3.832,2.436,7.66,5.572,11.491,8.183c1.915,1.391,3.133,3.657,5.572,4.526v-0.521c-1.22-1.568-1.568-3.831-2.786-5.572c-1.739-1.741-3.483-3.309-5.224-5.05c-5.049-6.789-11.317-12.71-18.107-17.584c-5.571-3.831-17.76-9.054-20.023-15.497c0,0-0.175-0.173-0.348-0.347c3.83-0.348,8.356-1.741,12.014-2.786c5.919-1.568,11.317-1.219,17.411-2.786c2.785-0.697,5.571-1.567,8.356-2.438v-1.566c-3.132-3.134-5.396-7.313-8.705-10.273c-8.88-7.663-18.631-15.148-28.729-21.416c-5.398-3.483-12.363-5.746-18.109-8.706c-2.088-1.046-5.571-1.567-6.789-3.309c-3.135-3.83-4.877-8.879-7.139-13.406c-5.048-9.577-9.925-20.197-14.278-30.295c-3.132-6.791-5.048-13.582-8.879-19.849c-17.934-29.599-37.434-47.533-67.381-65.119c-6.443-3.656-14.104-5.223-22.287-7.137c-4.351-0.175-8.706-0.522-13.058-0.698c-2.786-1.219-5.572-4.526-8.01-6.094c-9.923-6.269-35.519-19.848-42.831-1.914C18.397,44.6,30.064,55.742,34.067,61.49c2.962,4.004,6.791,8.53,8.881,13.058c1.219,2.958,1.566,6.095,2.785,9.228c2.787,7.659,5.397,16.192,9.055,23.332c1.915,3.656,4.004,7.486,6.442,10.794c1.393,1.914,3.83,2.786,4.353,5.919c-2.437,3.483-2.612,8.707-4.006,13.059c-6.268,19.675-3.829,44.05,5.05,58.501c2.785,4.351,9.402,13.931,18.282,10.273c7.836-3.133,6.095-13.058,8.356-21.764c0.524-2.092,0.176-3.483,1.22-4.876v0.349c2.438,4.874,4.875,9.576,7.138,14.451c5.398,8.53,14.799,17.411,22.634,23.332c4.18,3.132,7.488,8.53,12.712,10.446v-0.523h-0.349c-1.045-1.567-2.612-2.263-4.004-3.483c-3.133-3.132-6.617-6.963-9.054-10.446c-7.312-9.751-13.755-20.546-19.501-31.689c-2.785-5.396-5.224-11.317-7.487-16.714c-1.046-2.092-1.046-5.224-2.786-6.268c-2.612,3.83-6.442,7.138-8.357,11.839c-3.307,7.487-3.656,16.715-4.875,26.29c-0.697,0.176-0.349,0-0.698,0.35c-5.57-1.395-7.486-7.139-9.576-12.015c-5.224-12.361-6.095-32.21-1.566-46.487c1.219-3.657,6.443-15.147,4.353-18.63c-1.045-3.309-4.528-5.224-6.443-7.835c-2.263-3.309-4.702-7.486-6.268-11.143c-4.179-9.75-6.269-20.546-10.795-30.296c-2.09-4.527-5.744-9.227-8.706-13.406c-3.308-4.701-6.964-8.01-9.576-13.581c-0.87-1.914-2.09-5.049-0.697-7.138c0.348-1.393,1.044-1.914,2.438-2.263c2.264-1.916,8.707,0.521,10.968,1.566c6.443,2.61,11.84,5.05,17.238,8.706c2.437,1.741,5.049,5.05,8.182,5.92h3.657c5.572,1.218,11.839,0.348,17.063,1.914c9.229,2.959,17.585,7.313,25.073,12.014c22.809,14.451,41.612,34.997,54.323,59.546c2.09,4.003,2.959,7.662,4.875,11.839c3.658,8.532,8.184,17.238,11.839,25.595c3.657,8.182,7.138,16.541,12.362,23.332c2.612,3.655,13.058,5.571,17.759,7.487c3.483,1.566,8.881,2.96,12.014,4.875c5.919,3.655,11.839,7.836,17.411,11.839C248.575,210.877,257.279,215.231,257.803,218.712L257.803,218.712z"/>
<path style="fill:#00546B;" d="M80.206,67.407c-2.959,0-5.048,0.35-7.137,0.872v0.348h0.348c1.394,2.786,3.83,4.702,5.57,7.138c1.394,2.785,2.612,5.572,4.006,8.358c0.173-0.175,0.347-0.348,0.347-0.348c2.439-1.742,3.657-4.527,3.657-8.707c-1.045-1.218-1.219-2.437-2.09-3.656C83.864,69.671,81.599,68.801,80.206,67.407L80.206,67.407z"/>
</svg>