<svg xmlns="http://www.w3.org/2000/svg" viewBox="0 0 600 600">
<path style="fill:#F7DF1E;" d="M120.8,44h358.4c42.415,0,76.8,34.385,76.8,76.8v358.4c0,42.415-34.385,76.8-76.8,76.8H120.8C78.385,556,44,521.615,44,479.2V120.8C44,78.385,78.385,44,120.8,44z"/>
<path d="M368,414c10,17,24,29,47,29c20,0,33-10,33-24c0-16-13-22-35-32l-12-5c-35-15-58-33-58-72c0-36,27-64,70-64c31,0,53,11,68,39l-37,24c-8-15-17-21-31-21s-23,9-23,21c0,14,9,20,30,29l12,5c41,18,64,35,64,76c0,43-34,67-80,67c-45,0-74-21-88-49L368,414zM198,418c8,13,14,25,31,25c16,0,26-6,26-30V247h48v164c0,50-29,72-72,72c-39,0-61-20-72-44L198,418z"/>
</svg>
