<svg version="1.1" id="Layer_1" xmlns="http://www.w3.org/2000/svg" xmlns:xlink="http://www.w3.org/1999/xlink" x="0px" y="0px"
	 width="100%" viewBox="0 0 393 378" enable-background="new 0 0 393 378" xml:space="preserve">
<path fill="#000000" opacity="1.000000" stroke="none" 
	d="
M0.999999,147.000000 
	C1.000000,98.389565 1.000000,49.779121 1.000000,1.000000 
	C78.354149,1.000000 155.708420,1.000000 233.811127,1.286514 
	C231.677292,5.573671 228.796127,9.575115 225.912537,13.574805 
	C210.214951,35.348129 206.929886,59.185345 215.813690,84.184822 
	C225.708115,112.028183 245.232574,131.166412 272.193573,143.124924 
	C290.283203,151.148575 309.156952,151.801056 328.005981,148.682755 
	C350.006226,145.043137 366.264160,132.070663 377.903595,113.239929 
	C379.415771,110.793541 380.612152,108.151955 381.954834,105.600784 
	C372.079987,116.185837 360.813019,124.269646 346.714355,126.367378 
	C336.560242,127.878189 325.973083,127.649796 315.687714,126.831573 
	C300.432251,125.617950 286.278717,120.222115 273.447479,111.875160 
	C255.435394,100.157921 242.030762,84.473755 233.808594,64.475105 
	C227.946671,50.217251 226.123779,35.462662 229.208786,20.423189 
	C230.574631,13.764611 233.682770,7.463425 236.000000,0.999999 
	C288.597198,1.000000 341.194366,1.000000 394.000000,1.000000 
	C394.000000,58.687393 394.000000,116.375038 393.644409,174.551743 
	C392.891632,175.290100 392.359375,175.447037 392.116699,175.801987 
	C382.234161,190.254654 369.190277,201.162979 353.701172,209.002640 
	C331.946686,220.013458 308.931824,224.344376 284.457275,222.161102 
	C265.028931,220.427979 246.747620,215.235138 229.251724,207.018570 
	C204.390747,195.343109 184.021698,177.942978 167.756592,156.032394 
	C152.107101,134.951111 142.269730,111.169518 140.163162,84.838966 
	C138.619476,65.544182 141.364197,46.681694 149.945999,28.981674 
	C150.751999,27.319296 150.879929,25.328163 151.322662,23.489664 
	C146.587036,28.728159 142.936569,34.373753 138.790115,39.627918 
	C122.385063,60.415501 114.498573,84.229454 114.176025,110.449455 
	C114.067711,119.254684 115.456566,128.190536 117.118050,136.883789 
	C121.654900,160.621582 132.316010,181.790924 147.827499,199.987122 
	C164.344131,219.362411 184.121643,235.016678 207.751358,245.427307 
	C222.337219,251.853485 237.432846,256.202148 253.294144,256.838867 
	C265.035095,257.310211 276.848694,256.597717 288.603394,255.939041 
	C302.326660,255.170074 315.477753,251.583679 327.973053,245.953949 
	C356.776642,232.976547 377.864838,212.139603 390.990051,183.311890 
	C391.578644,182.019104 392.978180,181.095535 394.000000,180.000000 
	C394.000000,246.249619 394.000000,312.499237 394.000000,379.000000 
	C344.979401,379.000000 295.958344,379.000000 246.350647,378.596375 
	C246.435593,377.805389 247.063400,377.221222 247.785431,377.060577 
	C257.044495,375.000702 266.451294,373.475555 275.560394,370.895905 
	C300.664948,363.786377 322.695770,350.862244 341.924957,333.415680 
	C355.538788,321.063934 367.043335,306.797333 376.036987,290.671417 
	C379.076416,285.221619 381.679535,279.528442 384.482086,273.946503 
	C382.811340,273.903931 382.102325,274.360962 381.589966,274.980591 
	C373.124115,285.219299 363.759369,294.482849 352.787109,302.069183 
	C324.251770,321.798859 292.035065,330.000336 257.969177,330.713562 
	C242.413147,331.039307 226.594437,329.400726 211.244614,326.679932 
	C183.477325,321.757996 157.943726,310.498138 134.496933,294.878418 
	C118.289833,284.081604 102.878212,272.198792 90.461937,256.940643 
	C83.297958,248.136948 75.586700,239.684692 69.286278,230.293045 
	C58.461651,214.157440 50.414837,196.599579 44.825562,177.875336 
	C38.095352,155.328949 35.398582,132.550247 37.876167,109.064323 
	C39.494637,93.722275 43.324501,79.109428 49.463318,65.023865 
	C50.798393,61.960533 51.942635,58.814026 53.174767,55.705826 
	C43.259716,66.917786 33.689880,78.187317 25.084713,90.150726 
	C13.221346,106.643867 6.066140,125.243088 2.882039,145.348557 
	C2.781643,145.982483 1.650578,146.453186 0.999999,147.000000 
z"/>
<path fill="#0868AC" opacity="1.000000" stroke="none" 
	d="
M0.999999,147.468658 
	C1.650578,146.453186 2.781643,145.982483 2.882039,145.348557 
	C6.066140,125.243088 13.221346,106.643867 25.084713,90.150726 
	C33.689880,78.187317 43.259716,66.917786 53.174767,55.705826 
	C51.942635,58.814026 50.798393,61.960533 49.463318,65.023865 
	C43.324501,79.109428 39.494637,93.722275 37.876167,109.064323 
	C35.398582,132.550247 38.095352,155.328949 44.825562,177.875336 
	C50.414837,196.599579 58.461651,214.157440 69.286278,230.293045 
	C75.586700,239.684692 83.297958,248.136948 90.461937,256.940643 
	C102.878212,272.198792 118.289833,284.081604 134.496933,294.878418 
	C157.943726,310.498138 183.477325,321.757996 211.244614,326.679932 
	C226.594437,329.400726 242.413147,331.039307 257.969177,330.713562 
	C292.035065,330.000336 324.251770,321.798859 352.787109,302.069183 
	C363.759369,294.482849 373.124115,285.219299 381.589966,274.980591 
	C382.102325,274.360962 382.811340,273.903931 384.482086,273.946503 
	C381.679535,279.528442 379.076416,285.221619 376.036987,290.671417 
	C367.043335,306.797333 355.538788,321.063934 341.924957,333.415680 
	C322.695770,350.862244 300.664948,363.786377 275.560394,370.895905 
	C266.451294,373.475555 257.044495,375.000702 247.785431,377.060577 
	C247.063400,377.221222 246.435593,377.805389 245.881989,378.596375 
	C225.645767,379.000000 205.291550,379.000000 184.578476,378.589783 
	C183.547012,377.797180 182.892670,377.118561 182.199097,377.075775 
	C163.527496,375.923920 146.296951,369.437073 129.664505,361.728424 
	C95.212410,345.760895 65.953102,323.022552 42.964916,292.511993 
	C23.526705,266.713074 9.905481,238.335556 3.888107,206.451233 
	C3.402374,203.877472 1.984641,201.479599 0.999999,199.000000 
	C1.000000,181.979111 1.000000,164.958206 0.999999,147.468658 
z"/>
<path fill="#0868AC" opacity="1.000000" stroke="none" 
	d="
M394.000000,179.583344 
	C392.978180,181.095535 391.578644,182.019104 390.990051,183.311890 
	C377.864838,212.139603 356.776642,232.976547 327.973053,245.953949 
	C315.477753,251.583679 302.326660,255.170074 288.603394,255.939041 
	C276.848694,256.597717 265.035095,257.310211 253.294144,256.838867 
	C237.432846,256.202148 222.337219,251.853485 207.751358,245.427307 
	C184.121643,235.016678 164.344131,219.362411 147.827499,199.987122 
	C132.316010,181.790924 121.654900,160.621582 117.118050,136.883789 
	C115.456566,128.190536 114.067711,119.254684 114.176025,110.449455 
	C114.498573,84.229454 122.385063,60.415501 138.790115,39.627918 
	C142.936569,34.373753 146.587036,28.728159 151.322662,23.489664 
	C150.879929,25.328163 150.751999,27.319296 149.945999,28.981674 
	C141.364197,46.681694 138.619476,65.544182 140.163162,84.838966 
	C142.269730,111.169518 152.107101,134.951111 167.756592,156.032394 
	C184.021698,177.942978 204.390747,195.343109 229.251724,207.018570 
	C246.747620,215.235138 265.028931,220.427979 284.457275,222.161102 
	C308.931824,224.344376 331.946686,220.013458 353.701172,209.002640 
	C369.190277,201.162979 382.234161,190.254654 392.116699,175.801987 
	C392.359375,175.447037 392.891632,175.290100 393.644409,175.020401 
	C394.000000,176.388885 394.000000,177.777786 394.000000,179.583344 
z"/>
<path fill="#000000" opacity="1.000000" stroke="none" 
	d="
M0.999999,199.468658 
	C1.984641,201.479599 3.402374,203.877472 3.888107,206.451233 
	C9.905481,238.335556 23.526705,266.713074 42.964916,292.511993 
	C65.953102,323.022552 95.212410,345.760895 129.664505,361.728424 
	C146.296951,369.437073 163.527496,375.923920 182.199097,377.075775 
	C182.892670,377.118561 183.547012,377.797180 184.109818,378.589783 
	C123.073578,379.000000 62.147160,379.000000 1.000000,379.000000 
	C1.000000,319.312622 1.000000,259.624969 0.999999,199.468658 
z"/>
<path fill="#0868AC" opacity="1.000000" stroke="none" 
	d="
M235.666672,0.999999 
	C233.682770,7.463425 230.574631,13.764611 229.208786,20.423189 
	C226.123779,35.462662 227.946671,50.217251 233.808594,64.475105 
	C242.030762,84.473755 255.435394,100.157921 273.447479,111.875160 
	C286.278717,120.222115 300.432251,125.617950 315.687714,126.831573 
	C325.973083,127.649796 336.560242,127.878189 346.714355,126.367378 
	C360.813019,124.269646 372.079987,116.185837 381.954834,105.600784 
	C380.612152,108.151955 379.415771,110.793541 377.903595,113.239929 
	C366.264160,132.070663 350.006226,145.043137 328.005981,148.682755 
	C309.156952,151.801056 290.283203,151.148575 272.193573,143.124924 
	C245.232574,131.166412 225.708115,112.028183 215.813690,84.184822 
	C206.929886,59.185345 210.214951,35.348129 225.912537,13.574805 
	C228.796127,9.575115 231.677292,5.573671 234.279785,1.286514 
	C234.444443,1.000000 234.888901,1.000000 235.666672,0.999999 
z"/>
</svg>